<svg width="0" height="0" class="hidden">
  <symbol preserveAspectRatio="xMidYMid" xmlns="http://www.w3.org/2000/svg" viewBox="-1.871 -0.4069999999999627 259.721 257.849" id="vitejs">
    <linearGradient id="a" x1="-.828%" x2="57.636%" y1="7.652%" y2="78.411%">
      <stop offset="0" stop-color="#41d1ff"></stop>
      <stop offset="1" stop-color="#bd34fe"></stop>
    </linearGradient>
    <linearGradient id="b" x1="43.376%" x2="50.316%" y1="2.242%" y2="89.03%">
      <stop offset="0" stop-color="#ffea83"></stop>
      <stop offset=".083" stop-color="#ffdd35"></stop>
      <stop offset="1" stop-color="#ffa800"></stop>
    </linearGradient>
    <path d="M255.153 37.938L134.897 252.976c-2.483 4.44-8.862 4.466-11.382.048L.875 37.958c-2.746-4.814 1.371-10.646 6.827-9.67l120.385 21.517a6.537 6.537 0 0 0 2.322-.004l117.867-21.483c5.438-.991 9.574 4.796 6.877 9.62z" fill="url(#a)"></path>
    <path d="M185.432.063L96.44 17.501a3.268 3.268 0 0 0-2.634 3.014l-5.474 92.456a3.268 3.268 0 0 0 3.997 3.378l24.777-5.718c2.318-.535 4.413 1.507 3.936 3.838l-7.361 36.047c-.495 2.426 1.782 4.5 4.151 3.78l15.304-4.649c2.372-.72 4.652 1.36 4.15 3.788l-11.698 56.621c-.732 3.542 3.979 5.473 5.943 2.437l1.313-2.028 72.516-144.72c1.215-2.423-.88-5.186-3.54-4.672l-25.505 4.922c-2.396.462-4.435-1.77-3.759-4.114l16.646-57.705c.677-2.35-1.37-4.583-3.769-4.113z" fill="url(#b)"></path>
  </symbol>
  <symbol fill="none" xmlns="http://www.w3.org/2000/svg" viewBox="0 0 282.72 64" id="vercel">
    <path d="M141.04 16c-11.04 0-19 7.2-19 18s8.96 18 20 18c6.67 0 12.55-2.64 16.19-7.09l-7.65-4.42c-2.02 2.21-5.09 3.5-8.54 3.5-4.79 0-8.86-2.5-10.37-6.5h28.02c.22-1.12.35-2.28.35-3.5 0-10.79-7.96-17.99-19-17.99zm-9.46 14.5c1.25-3.99 4.67-6.5 9.45-6.5 4.79 0 8.21 2.51 9.45 6.5zM248.72 16c-11.04 0-19 7.2-19 18s8.96 18 20 18c6.67 0 12.55-2.64 16.19-7.09l-7.65-4.42c-2.02 2.21-5.09 3.5-8.54 3.5-4.79 0-8.86-2.5-10.37-6.5h28.02c.22-1.12.35-2.28.35-3.5 0-10.79-7.96-17.99-19-17.99zm-9.45 14.5c1.25-3.99 4.67-6.5 9.45-6.5 4.79 0 8.21 2.51 9.45 6.5zM200.24 34c0 6 3.92 10 10 10 4.12 0 7.21-1.87 8.8-4.92l7.68 4.43c-3.18 5.3-9.14 8.49-16.48 8.49-11.05 0-19-7.2-19-18s7.96-18 19-18c7.34 0 13.29 3.19 16.48 8.49l-7.68 4.43c-1.59-3.05-4.68-4.92-8.8-4.92-6.07 0-10 4-10 10zm82.48-29v46h-9V5zM36.95 0L73.9 64H0zm92.38 5l-27.71 48L73.91 5H84.3l17.32 30 17.32-30zm58.91 12v9.69c-1-.29-2.06-.49-3.2-.49-5.81 0-10 4-10 10V51h-9V17h9v9.2c0-5.08 5.91-9.2 13.2-9.2z" fill="#000"></path>
  </symbol>
  <symbol xmlns="http://www.w3.org/2000/svg" preserveAspectRatio="xMidYMid" viewBox="0 0 256 256" id="netlify">
    <path d="M153.094 165.679l-62.785-13.12a14.631 14.631 0 0 1-.876 1.475l57.157 83.378 3.448-3.444 9.724-60.47a11.458 11.458 0 0 1-6.668-7.82zM130.19 83.605c-2.352 3.608-6.412 5.996-11.036 5.996-.712 0-1.404-.072-2.084-.18l-28.633 44.801 76.498-32.92c-.024-.308-.092-.596-.092-.912 0-.644.088-1.268.192-1.884l-34.845-14.9zm2.08-8.164l37.065 15.848a11.447 11.447 0 0 1 3.976-2.008l6.092-37.88-23.209-23.209L130.07 69.07a13.013 13.013 0 0 1 2.2 6.372zm77.665 6.492l-23.26-23.264-5.056 31.408a11.628 11.628 0 0 1 3.396 2.584l24.92-10.728zm-55.729 75.473a11.355 11.355 0 0 1 9.089-5.844l6.68-41.548c-.524-.348-.992-.764-1.452-1.192l-76.938 33.112c.196.804.332 1.624.396 2.476l62.225 12.996zm62.065-69.133l-26.912 11.58 66.401 28.389.24-.24-39.729-39.729zm-48.092 85.35l-8.088 50.284 46.964-46.964-33.828-7.064a11.366 11.366 0 0 1-5.048 3.744zm-91.286-12.928c-1.7 0-3.328-.292-4.852-.809l-15.6 24.413-6.028-6.024 14.776-23.12a16.066 16.066 0 0 1-1.02-1.417l-26.768 11.525-6.345-6.345 29.3-12.612L7.385 135.25.14 128.002l2.292-2.292 61.085 12.752a14.981 14.981 0 0 1 2.668-3.616L36.537 91.601l5.988-5.988L73.5 130.798a15.283 15.283 0 0 1 3.392-.396c1.308 0 2.576.184 3.788.496l28.985-45.353a13.126 13.126 0 0 1-3.676-9.116c0-1.04.132-2.048.36-3.016l-36.16-15.46 6.343-6.344 34.26 14.652a13.12 13.12 0 0 1 12.653-2.268l26.724-41.825L128.002 0 0 128.002l128.002 128.002 12.596-12.596-57.585-84.01a15.117 15.117 0 0 1-6.12 1.297zm101.23-48.89l-6.796 42.237a11.359 11.359 0 0 1 4.196 7.813l38.572 8.052 35.32-35.32-63.752-27.257a11.508 11.508 0 0 1-7.54 4.476z" fill="#25C7B7"></path>
  </symbol>
  <symbol xmlns="http://www.w3.org/2000/svg" viewBox="0 0 48 48" id="icons8-figma">
    <path fill="#e64a19" d="M26,17h-8c-3.866,0-7-3.134-7-7v0c0-3.866,3.134-7,7-7h8V17z"></path>
    <path fill="#7c4dff" d="M25,31h-7c-3.866,0-7-3.134-7-7v0c0-3.866,3.134-7,7-7h7V31z"></path>
    <path fill="#66bb6a" d="M18,45L18,45c-3.866,0-7-3.134-7-7v0c0-3.866,3.134-7,7-7h7v7C25,41.866,21.866,45,18,45z"></path>
    <path fill="#ff7043" d="M32,17h-7V3h7c3.866,0,7,3.134,7,7v0C39,13.866,35.866,17,32,17z"></path>
    <circle cx="32" cy="24" r="7" fill="#29b6f6"></circle>
  </symbol>
  <symbol xmlns="http://www.w3.org/2000/svg" preserveAspectRatio="xMinYMin meet" viewBox="0 0 256 255" id="python-5">
    <defs>
      <linearGradient x1="12.959%" y1="12.039%" x2="79.639%" y2="78.201%" id="a">
        <stop stop-color="#387EB8" offset="0%"></stop>
        <stop stop-color="#366994" offset="100%"></stop>
      </linearGradient>
      <linearGradient x1="19.128%" y1="20.579%" x2="90.742%" y2="88.429%" id="b">
        <stop stop-color="#FFE052" offset="0%"></stop>
        <stop stop-color="#FFC331" offset="100%"></stop>
      </linearGradient>
    </defs>
    <path d="M126.916.072c-64.832 0-60.784 28.115-60.784 28.115l.072 29.128h61.868v8.745H41.631S.145 61.355.145 126.77c0 65.417 36.21 63.097 36.21 63.097h21.61v-30.356s-1.165-36.21 35.632-36.21h61.362s34.475.557 34.475-33.319V33.97S194.67.072 126.916.072zM92.802 19.66a11.12 11.12 0 0 1 11.13 11.13 11.12 11.12 0 0 1-11.13 11.13 11.12 11.12 0 0 1-11.13-11.13 11.12 11.12 0 0 1 11.13-11.13z" fill="url(#a)"></path>
    <path d="M128.757 254.126c64.832 0 60.784-28.115 60.784-28.115l-.072-29.127H127.6v-8.745h86.441s41.486 4.705 41.486-60.712c0-65.416-36.21-63.096-36.21-63.096h-21.61v30.355s1.165 36.21-35.632 36.21h-61.362s-34.475-.557-34.475 33.32v56.013s-5.235 33.897 62.518 33.897zm34.114-19.586a11.12 11.12 0 0 1-11.13-11.13 11.12 11.12 0 0 1 11.13-11.131 11.12 11.12 0 0 1 11.13 11.13 11.12 11.12 0 0 1-11.13 11.13z" fill="url(#b)"></path>
  </symbol>
  <symbol xmlns="http://www.w3.org/2000/svg" viewBox="32.18585611720149 20.47 223.6851360941233 247.05999999999997" id="c-1">
    <path d="M252.71 93.61a21.67 21.67 0 0 0-2.65-10.87 20.74 20.74 0 0 0-7.87-7.67Q198.77 50 155.32 25c-7.8-4.51-15.36-4.35-23.11.23C120.69 32 63 65.09 45.81 75.06c-7.08 4.1-10.52 10.38-10.52 18.54v100.8a21.77 21.77 0 0 0 2.55 10.66 20.63 20.63 0 0 0 8 7.88c17.19 10 74.89 43.05 86.41 49.85 7.75 4.58 15.31 4.74 23.12.23q43.41-25.08 86.87-50.09a20.63 20.63 0 0 0 8-7.88 21.77 21.77 0 0 0 2.55-10.66V93.61z" fill="#004482"></path>
    <path d="M252.73 194.4a21.72 21.72 0 0 1-2.55 10.66 18.58 18.58 0 0 1-1.45 2.24L144 144l98.19-68.93a20.72 20.72 0 0 1 7.86 7.67 21.57 21.57 0 0 1 2.66 10.87c.02 33.6.02 100.79.02 100.79z" fill="#00599c"></path>
    <path d="M250.05 82.74L37.81 205.06a21.75 21.75 0 0 1-2.53-10.65V93.6c0-8.16 3.45-14.44 10.52-18.54C63 65.09 120.69 32 132.22 25.21c7.73-4.58 15.3-4.74 23.1-.23q43.41 25.08 86.87 50.09a20.72 20.72 0 0 1 7.86 7.67z" fill="#659ad2"></path>
    <path d="M148.2 184.72a39.91 39.91 0 0 1-35-20.63q-.53-.94-1-1.92A39.94 39.94 0 0 1 179 119.4c.53.64 1 1.31 1.53 2 .24.33.48.66.7 1l35.07-20.2q-1.28-2.06-2.68-4c-.49-.69-1-1.35-1.48-2A79.9 79.9 0 0 0 78 181.92c.34.64.69 1.27 1 1.9a79.91 79.91 0 0 0 136.86 3.62l-34.29-20.73a39.88 39.88 0 0 1-33.37 18.01z" fill="#fff"></path>
  </symbol>
  <symbol xmlns="http://www.w3.org/2000/svg" preserveAspectRatio="xMinYMin meet" viewBox="0 0 256 288" id="c">
    <path d="M255.569 84.72c-.002-4.83-1.035-9.098-3.124-12.761-2.052-3.602-5.125-6.621-9.247-9.008-34.025-19.619-68.083-39.178-102.097-58.817-9.17-5.294-18.061-5.101-27.163.269C100.395 12.39 32.59 51.237 12.385 62.94 4.064 67.757.015 75.129.013 84.711 0 124.166.013 163.62 0 203.076c.002 4.724.991 8.909 2.988 12.517 2.053 3.711 5.169 6.813 9.386 9.254 20.206 11.703 88.02 50.547 101.56 58.536 9.106 5.373 17.997 5.565 27.17.269 34.015-19.64 68.075-39.198 102.105-58.817 4.217-2.44 7.333-5.544 9.386-9.252 1.994-3.608 2.985-7.793 2.987-12.518 0 0 0-78.889-.013-118.345" fill="#5C8DBC"></path>
    <path d="M128.182 143.509L2.988 215.593c2.053 3.711 5.169 6.813 9.386 9.254 20.206 11.703 88.02 50.547 101.56 58.536 9.106 5.373 17.997 5.565 27.17.269 34.015-19.64 68.075-39.198 102.105-58.817 4.217-2.44 7.333-5.544 9.386-9.252l-124.413-72.074" fill="#1A4674"></path>
    <path d="M91.101 164.861c7.285 12.718 20.98 21.296 36.69 21.296 15.807 0 29.58-8.687 36.828-21.541l-36.437-21.107-37.081 21.352" fill="#1A4674"></path>
    <path d="M255.569 84.72c-.002-4.83-1.035-9.098-3.124-12.761l-124.263 71.55 124.413 72.074c1.994-3.608 2.985-7.793 2.987-12.518 0 0 0-78.889-.013-118.345" fill="#1B598E"></path>
    <path d="M248.728 148.661h-9.722v9.724h-9.724v-9.724h-9.721v-9.721h9.721v-9.722h9.724v9.722h9.722v9.721M213.253 148.661h-9.721v9.724h-9.722v-9.724h-9.722v-9.721h9.722v-9.722h9.722v9.722h9.721v9.721" fill="#FFF"></path>
    <path d="M164.619 164.616c-7.248 12.854-21.021 21.541-36.828 21.541-15.71 0-29.405-8.578-36.69-21.296a42.062 42.062 0 0 1-5.574-20.968c0-23.341 18.923-42.263 42.264-42.263 15.609 0 29.232 8.471 36.553 21.059l36.941-21.272c-14.683-25.346-42.096-42.398-73.494-42.398-46.876 0-84.875 38-84.875 84.874 0 15.378 4.091 29.799 11.241 42.238 14.646 25.48 42.137 42.637 73.634 42.637 31.555 0 59.089-17.226 73.714-42.781l-36.886-21.371" fill="#FFF"></path>
  </symbol>
  <symbol xmlns="http://www.w3.org/2000/svg" viewBox="0 0 512 149" id="express-109">
    <path d="M3.332 115.629V58.648h71.144v-3.333H3.332V3.332h75.642V0H0v118.961h79.64v-3.332H3.333zm140.455-82.307l-29.49 38.821-28.825-38.82H81.14l31.157 41.32L78.14 118.96h3.999l32.156-41.82 32.323 41.82h4.165l-34.322-44.319 31.323-41.32h-3.998zm16.994 114.963V94.97h.333c2 7.775 5.943 14.023 11.83 18.744 5.887 4.72 13.384 7.081 22.492 7.081 5.887 0 11.108-1.194 15.662-3.582s8.358-5.637 11.413-9.747c3.054-4.11 5.387-8.886 6.998-14.329 1.61-5.442 2.416-11.163 2.416-17.16 0-6.443-.834-12.386-2.5-17.828-1.666-5.443-4.082-10.164-7.247-14.162-3.166-3.999-6.998-7.11-11.497-9.33-4.498-2.222-9.58-3.333-15.245-3.333-4.332 0-8.358.639-12.079 1.916-3.721 1.278-7.025 3.082-9.913 5.415a36.674 36.674 0 0 0-7.498 8.247c-2.11 3.166-3.721 6.637-4.832 10.414h-.333V33.322h-3.332v114.963h3.332zm34.655-30.657c-10.44 0-18.827-3.582-25.158-10.746-6.331-7.164-9.497-17.467-9.497-30.907 0-5.554.778-10.83 2.333-15.828 1.555-4.998 3.804-9.386 6.747-13.162 2.944-3.777 6.582-6.776 10.913-8.997 4.332-2.222 9.22-3.333 14.662-3.333 5.554 0 10.414 1.111 14.579 3.333 4.165 2.221 7.609 5.248 10.33 9.08s4.776 8.22 6.165 13.162c1.388 4.943 2.082 10.191 2.082 15.745 0 4.999-.638 9.97-1.916 14.912-1.277 4.943-3.249 9.386-5.915 13.33-2.665 3.942-6.08 7.163-10.246 9.663-4.166 2.499-9.192 3.748-15.079 3.748zm54.816 1.333V70.477c0-4.665.666-9.22 2-13.662 1.332-4.443 3.387-8.359 6.164-11.746 2.777-3.388 6.303-6.054 10.58-7.998 4.276-1.944 9.358-2.749 15.245-2.416v-3.332c-5.11-.11-9.58.444-13.412 1.666-3.833 1.222-7.137 2.888-9.914 4.999-2.777 2.11-4.998 4.581-6.664 7.414a33.15 33.15 0 0 0-3.666 9.08h-.333v-21.16h-3.332v85.64h3.332zm38.154-42.153h71.643c.223-5.887-.36-11.551-1.749-16.994-1.388-5.443-3.61-10.275-6.664-14.495-3.055-4.221-6.998-7.609-11.83-10.164-4.832-2.555-10.58-3.832-17.244-3.832-4.777 0-9.442 1-13.996 3-4.554 1.999-8.553 4.914-11.996 8.746-3.443 3.832-6.22 8.525-8.33 14.08-2.11 5.553-3.166 11.884-3.166 18.993 0 6.331.722 12.246 2.166 17.744 1.444 5.498 3.665 10.275 6.664 14.329 3 4.054 6.86 7.192 11.58 9.413 4.72 2.222 10.413 3.277 17.078 3.166 9.774 0 17.994-2.75 24.658-8.247 6.665-5.499 10.608-13.246 11.83-23.243h-3.332c-1.444 9.442-5.138 16.523-11.08 21.243-5.943 4.721-13.412 7.081-22.41 7.081-6.109 0-11.274-1.055-15.495-3.165-4.22-2.11-7.664-4.999-10.33-8.664-2.665-3.666-4.637-7.97-5.914-12.913-1.278-4.942-1.972-10.302-2.083-16.078zm68.311-3.332h-68.31c.332-5.998 1.443-11.385 3.331-16.161 1.889-4.777 4.36-8.859 7.415-12.246 3.054-3.388 6.609-5.97 10.663-7.748 4.054-1.777 8.414-2.666 13.079-2.666 5.554 0 10.44 1.028 14.662 3.083 4.22 2.055 7.747 4.86 10.58 8.414 2.832 3.554 4.97 7.692 6.414 12.412 1.444 4.721 2.166 9.692 2.166 14.912zm72.477-14.828h3.332c0-9.553-2.777-16.495-8.33-20.827-5.555-4.332-13.108-6.498-22.66-6.498-5.332 0-9.83.667-13.496 2-3.665 1.332-6.664 3.054-8.997 5.164-2.332 2.11-3.998 4.443-4.998 6.998-1 2.555-1.5 4.999-1.5 7.331 0 4.665.833 8.386 2.5 11.163 1.666 2.777 4.276 4.943 7.83 6.498 2.444 1.11 5.22 2.11 8.331 3 3.11.888 6.72 1.832 10.83 2.831 3.665.89 7.275 1.778 10.83 2.666 3.554.889 6.692 2.083 9.413 3.582 2.722 1.5 4.943 3.416 6.665 5.749 1.721 2.332 2.582 5.387 2.582 9.163 0 3.666-.86 6.776-2.582 9.33a20.815 20.815 0 0 1-6.581 6.249c-2.666 1.61-5.638 2.776-8.914 3.498-3.277.722-6.47 1.083-9.58 1.083-10.108 0-17.856-2.249-23.243-6.747-5.387-4.499-8.08-11.58-8.08-21.244h-3.333c0 10.775 2.916 18.661 8.747 23.66 5.832 4.998 14.468 7.497 25.909 7.497 3.665 0 7.358-.417 11.08-1.25 3.72-.833 7.053-2.193 9.996-4.082a22.592 22.592 0 0 0 7.164-7.33c1.833-3 2.75-6.665 2.75-10.997 0-4.11-.806-7.442-2.416-9.997-1.611-2.554-3.721-4.665-6.332-6.331-2.61-1.666-5.553-2.971-8.83-3.915a516.08 516.08 0 0 0-9.914-2.75 1726.675 1726.675 0 0 0-12.246-3.165c-3.498-.889-6.747-1.944-9.746-3.166-2.888-1.222-5.193-2.971-6.915-5.248-1.722-2.277-2.582-5.526-2.582-9.747 0-.777.222-2.166.666-4.165.444-2 1.5-4.027 3.166-6.082 1.666-2.054 4.22-3.887 7.664-5.498 3.443-1.61 8.164-2.416 14.162-2.416 4.11 0 7.858.445 11.246 1.333 3.388.889 6.304 2.305 8.747 4.249 2.444 1.944 4.332 4.415 5.665 7.414 1.333 3 2 6.665 2 10.997zm77.141 0h3.332c0-9.553-2.776-16.495-8.33-20.827-5.554-4.332-13.107-6.498-22.66-6.498-5.331 0-9.83.667-13.495 2-3.666 1.332-6.665 3.054-8.997 5.164-2.333 2.11-3.999 4.443-4.999 6.998-1 2.555-1.499 4.999-1.499 7.331 0 4.665.833 8.386 2.5 11.163 1.665 2.777 4.276 4.943 7.83 6.498 2.444 1.11 5.22 2.11 8.33 3 3.11.888 6.72 1.832 10.83 2.831 3.666.89 7.276 1.778 10.83 2.666 3.555.889 6.692 2.083 9.414 3.582 2.721 1.5 4.943 3.416 6.664 5.749 1.722 2.332 2.583 5.387 2.583 9.163 0 3.666-.861 6.776-2.583 9.33a20.815 20.815 0 0 1-6.58 6.249c-2.667 1.61-5.638 2.776-8.915 3.498-3.276.722-6.47 1.083-9.58 1.083-10.108 0-17.855-2.249-23.242-6.747-5.388-4.499-8.081-11.58-8.081-21.244h-3.332c0 10.775 2.915 18.661 8.747 23.66 5.831 4.998 14.467 7.497 25.908 7.497 3.666 0 7.359-.417 11.08-1.25 3.72-.833 7.053-2.193 9.997-4.082a22.592 22.592 0 0 0 7.164-7.33c1.833-3 2.749-6.665 2.749-10.997 0-4.11-.805-7.442-2.416-9.997-1.61-2.554-3.72-4.665-6.331-6.331-2.61-1.666-5.554-2.971-8.83-3.915a516.071 516.071 0 0 0-9.914-2.75 1726.65 1726.65 0 0 0-12.246-3.165c-3.499-.889-6.748-1.944-9.747-3.166-2.888-1.222-5.193-2.971-6.914-5.248-1.722-2.277-2.583-5.526-2.583-9.747 0-.777.222-2.166.667-4.165.444-2 1.5-4.027 3.165-6.082 1.666-2.054 4.221-3.887 7.664-5.498 3.444-1.61 8.164-2.416 14.163-2.416 4.11 0 7.858.445 11.246 1.333 3.388.889 6.303 2.305 8.747 4.249 2.444 1.944 4.332 4.415 5.665 7.414 1.333 3 2 6.665 2 10.997z" fill="#222"></path>
  </symbol>
  <symbol xmlns="http://www.w3.org/2000/svg" preserveAspectRatio="xMidYMid" viewBox="0 0 256 244" id="redux">
    <path d="M177.381 169.733c9.447-.978 16.614-9.122 16.288-18.896-.325-9.773-8.47-17.592-18.243-17.592h-.651c-10.1.326-17.918 8.796-17.592 18.895.326 4.887 2.28 9.122 5.212 12.054-11.076 21.828-28.016 37.791-53.426 51.148-17.266 9.122-35.183 12.38-53.1 10.1-14.66-1.955-26.062-8.47-33.23-19.222-10.424-15.963-11.401-33.23-2.605-50.496 6.19-12.38 15.962-21.502 22.152-26.063-1.303-4.235-3.258-11.402-4.235-16.614-47.237 34.207-42.35 80.468-28.016 102.295 10.75 16.29 32.577 26.389 56.684 26.389 6.515 0 13.03-.652 19.546-2.28 41.699-8.145 73.299-32.905 91.216-69.718zm57.336-40.397c-24.759-28.995-61.245-44.958-102.944-44.958h-5.212c-2.932-5.864-9.122-9.774-15.963-9.774h-.652C99.848 74.93 92.03 83.4 92.355 93.5c.326 9.773 8.47 17.592 18.243 17.592h.651c7.167-.326 13.357-4.887 15.963-11.077h5.864c24.759 0 48.214 7.167 69.39 21.176 16.288 10.751 28.016 24.76 34.531 41.7 5.538 13.683 5.212 27.04-.652 38.443-9.121 17.266-24.432 26.714-44.63 26.714-13.031 0-25.41-3.91-31.926-6.842-3.583 3.258-10.099 8.47-14.66 11.729 14.009 6.515 28.343 10.099 42.025 10.099 31.274 0 54.404-17.267 63.2-34.533 9.447-18.896 8.795-51.474-15.637-79.165zM69.225 175.27c.326 9.774 8.47 17.592 18.243 17.592h.652c10.099-.325 17.917-8.796 17.591-18.895-.325-9.774-8.47-17.592-18.243-17.592h-.651c-.652 0-1.63 0-2.28.325-13.357-22.153-18.895-46.26-16.94-72.323 1.302-19.547 7.818-36.488 19.22-50.497 9.447-12.054 27.69-17.918 40.07-18.243 34.531-.652 49.19 42.351 50.168 59.618 4.235.977 11.402 3.258 16.289 4.887C189.434 27.366 156.857 0 125.584 0c-29.32 0-56.359 21.176-67.11 52.451-14.985 41.7-5.212 81.771 13.031 113.372-1.628 2.28-2.606 5.864-2.28 9.448z" fill="#764ABC"></path>
  </symbol>
  <symbol xmlns="http://www.w3.org/2000/svg" viewBox="-1.19275382 .5 25.19275382 24.582" id="jquery-4">
    <path d="m1.406 16.346c.023.052.049.1.077.148.013.028.031.057.047.083.026.052.054.102.081.152l.157.264c.029.049.057.097.09.145.055.094.12.186.177.28.026.039.05.078.079.117.11.171.21.313.317.451.076.103.152.204.234.305.027.038.057.076.085.114l.221.268c.027.031.054.067.083.099.098.118.202.232.306.348 0 .002.003.004.005.007.129.162.268.306.42.434l.004.004c.08.082.16.163.245.243l.101.097c.111.104.222.207.339.307.002 0 .003.002.005.003l.057.05c.102.089.205.177.31.259l.125.105c.085.068.173.132.26.199l.136.104c.093.07.192.138.287.206.035.025.07.05.106.073l.029.023.281.184.12.08c.147.094.293.182.439.27.042.021.084.044.123.068.108.062.22.125.329.182.06.034.122.063.184.094.075.042.153.083.233.125.022.007.04.014.058.024l.004-.004c.033.015.064.031.096.047.12.06.245.117.375.173.024.01.05.02.076.034.144.063.288.123.437.181.034.01.07.027.105.04.135.051.274.103.412.152l.05.018c.153.052.304.102.46.149.036.01.073.023.111.033.159.048.313.105.474.135 10.273 1.863 13.258-6.146 13.258-6.146-2.508 3.25-6.959 4.107-11.174 3.153-.156-.036-.312-.086-.47-.132a11.753 11.753 0 0 1 -.663-.209l.095.029-.062-.024c-.136-.046-.267-.097-.4-.148a1.53 1.53 0 0 0 -.099-.038l-.011-.003c-.147-.059-.29-.119-.432-.182-.031-.01-.057-.024-.088-.036a13.656 13.656 0 0 1 -.5-.23l.138.061a1.483 1.483 0 0 1 -.106-.052c-.094-.044-.188-.094-.28-.141a3.784 3.784 0 0 1 -.207-.106l.02.01c-.113-.06-.226-.125-.34-.186-.034-.024-.073-.044-.112-.066a14.058 14.058 0 0 1 -.502-.306l.063.038a2.042 2.042 0 0 1 -.124-.083l.006.004a6.039 6.039 0 0 1 -.316-.208c-.034-.022-.065-.046-.1-.07a8.47 8.47 0 0 1 -.318-.228l.024.017c-.042-.034-.087-.066-.132-.099-.088-.069-.177-.135-.265-.207l-.118-.094a10.16 10.16 0 0 1 -.37-.309l-.001-.001-.347-.315-.1-.094c-.082-.083-.166-.162-.25-.244l-.097-.1a9.008 9.008 0 0 1 -.303-.315l-.006-.007-.017-.014a17.877 17.877 0 0 1 -.313-.353c-.027-.031-.052-.064-.08-.097l-.227-.275a13.75 13.75 0 0 1 -.3-.391l-.04-.056c-2.338-3.176-3.184-7.559-1.313-11.155l-1.652 2.089c-2.125 3.039-1.862 6.991-.237 10.218.037.079.078.153.118.228z" fill="#1266a9"></path>
    <path d="m8.563 11.968-.011-.016-.009-.012z"></path>
    <path d="m9.681 13.28.09.09c.114.11.231.217.35.324l.015.013c.12.106.255.217.394.325l.021.016c.034.023.063.05.096.073.14.108.281.211.428.314l.015.009c.062.045.128.086.198.13.028.018.06.042.09.06.106.068.21.131.317.196.017.007.032.016.048.023.09.055.188.108.282.156.033.02.065.035.099.054.067.033.133.068.197.102l.032.014c.135.066.273.128.408.189.034.013.063.024.092.038.111.048.224.094.335.136.05.017.097.037.144.052.102.038.209.073.31.108l.14.045c.146.045.294.104.449.128 7.933 1.306 9.769-4.771 9.769-4.771-1.653 2.367-4.852 3.495-8.261 2.614a8.215 8.215 0 0 1 -.506-.145l.057.016c-.048-.013-.09-.028-.136-.042-.104-.036-.211-.071-.312-.108l-.144-.054c-.112-.045-.226-.087-.335-.135-.034-.015-.065-.025-.091-.04-.14-.063-.281-.125-.418-.191l-.206-.107-.119-.06c-.092-.048-.177-.098-.265-.149a.558.558 0 0 1 -.065-.036l.003.001c-.106-.066-.216-.13-.318-.197-.034-.019-.065-.042-.097-.062l-.208-.135c-.144-.1-.285-.207-.428-.311-.032-.029-.063-.053-.094-.079-1.499-1.173-2.681-2.776-3.242-4.591-.591-1.887-.461-4.003.56-5.72l-1.255 1.768c-1.541 2.201-1.454 5.143-.254 7.471.219.43.441.793.686 1.139.228.326.48.708.784.97.108.123.224.24.345.359z" fill="#1266a9"></path>
    <path d="m2.436 17.992-.004-.006-.007-.009zm4.158-.744.01.007.002.003z"></path>
    <path d="m13.666 1.427c-.909 1.327-.996 2.975-.37 4.438.665 1.554 2.024 2.774 3.608 3.352.065.025.128.046.195.07l.088.027c.092.029.185.063.28.084 4.381.841 5.567-2.238 5.886-2.691-1.043 1.49-2.792 1.848-4.938 1.329a4.753 4.753 0 0 1 -.55-.17l.033.011a6.196 6.196 0 0 1 -.656-.27l.038.017c-.41-.2-.762-.416-1.089-.664-1.918-1.45-3.104-4.211-1.852-6.46z" fill="#1266a9"></path>
  </symbol>
  <symbol xmlns="http://www.w3.org/2000/svg" viewBox=".5 -.2 1023 1024.1" id="next-js">
    <path d="m478.5.6c-2.2.2-9.2.9-15.5 1.4-145.3 13.1-281.4 91.5-367.6 212-48 67-78.7 143-90.3 223.5-4.1 28.1-4.6 36.4-4.6 74.5s.5 46.4 4.6 74.5c27.8 192.1 164.5 353.5 349.9 413.3 33.2 10.7 68.2 18 108 22.4 15.5 1.7 82.5 1.7 98 0 68.7-7.6 126.9-24.6 184.3-53.9 8.8-4.5 10.5-5.7 9.3-6.7-.8-.6-38.3-50.9-83.3-111.7l-81.8-110.5-102.5-151.7c-56.4-83.4-102.8-151.6-103.2-151.6-.4-.1-.8 67.3-1 149.6-.3 144.1-.4 149.9-2.2 153.3-2.6 4.9-4.6 6.9-8.8 9.1-3.2 1.6-6 1.9-21.1 1.9h-17.3l-4.6-2.9c-3-1.9-5.2-4.4-6.7-7.3l-2.1-4.5.2-200.5.3-200.6 3.1-3.9c1.6-2.1 5-4.8 7.4-6.1 4.1-2 5.7-2.2 23-2.2 20.4 0 23.8.8 29.1 6.6 1.5 1.6 57 85.2 123.4 185.9s157.2 238.2 201.8 305.7l81 122.7 4.1-2.7c36.3-23.6 74.7-57.2 105.1-92.2 64.7-74.3 106.4-164.9 120.4-261.5 4.1-28.1 4.6-36.4 4.6-74.5s-.5-46.4-4.6-74.5c-27.8-192.1-164.5-353.5-349.9-413.3-32.7-10.6-67.5-17.9-106.5-22.3-9.6-1-75.7-2.1-84-1.3zm209.4 309.4c4.8 2.4 8.7 7 10.1 11.8.8 2.6 1 58.2.8 183.5l-.3 179.8-31.7-48.6-31.8-48.6v-130.7c0-84.5.4-132 1-134.3 1.6-5.6 5.1-10 9.9-12.6 4.1-2.1 5.6-2.3 21.3-2.3 14.8 0 17.4.2 20.7 2z"></path>
    <path d="m784.3 945.1c-3.5 2.2-4.6 3.7-1.5 2 2.2-1.3 5.8-4 5.2-4.1-.3 0-2 1-3.7 2.1zm-6.9 4.5c-1.8 1.4-1.8 1.5.4.4 1.2-.6 2.2-1.3 2.2-1.5 0-.8-.5-.6-2.6 1.1zm-5 3c-1.8 1.4-1.8 1.5.4.4 1.2-.6 2.2-1.3 2.2-1.5 0-.8-.5-.6-2.6 1.1zm-5 3c-1.8 1.4-1.8 1.5.4.4 1.2-.6 2.2-1.3 2.2-1.5 0-.8-.5-.6-2.6 1.1zm-7.6 4c-3.8 2-3.6 2.8.2.9 1.7-.9 3-1.8 3-2 0-.7-.1-.6-3.2 1.1z"></path>
  </symbol>
  <symbol id="typescript" xmlns="http://www.w3.org/2000/svg" viewBox="0 0 400 400">
    <path d="M0 200V0h400v400H0"></path>
    <path d="M87.7 200.7V217h52v148h36.9V217h52v-16c0-9 0-16.3-.4-16.5 0-.3-31.7-.4-70.2-.4l-70 .3v16.4l-.3-.1zM321.4 184c10.2 2.4 18 7 25 14.3 3.7 4 9.2 11 9.6 12.8 0 .6-17.3 12.3-27.8 18.8-.4.3-2-1.4-3.6-4-5.2-7.4-10.5-10.6-18.8-11.2-12-.8-20 5.5-20 16 0 3.2.6 5 1.8 7.6 2.7 5.5 7.7 8.8 23.2 15.6 28.6 12.3 41 20.4 48.5 32 8.5 13 10.4 33.4 4.7 48.7-6.4 16.7-22 28-44.3 31.7-7 1.2-23 1-30.5-.3-16-3-31.3-11-40.7-21.3-3.7-4-10.8-14.7-10.4-15.4l3.8-2.4 15-8.7 11.3-6.6 2.6 3.5c3.3 5.2 10.7 12.2 15 14.6 13 6.7 30.4 5.8 39-2 3.7-3.4 5.3-7 5.3-12 0-4.6-.7-6.7-3-10.2-3.2-4.4-9.6-8-27.6-16-20.7-8.8-29.5-14.4-37.7-23-4.7-5.2-9-13.3-11-20-1.5-5.8-2-20-.6-25.7 4.3-20 19.4-34 41-38 7-1.4 23.5-.8 30.4 1l-.2.2z"></path>
  </symbol>
  <symbol fill="none" xmlns="http://www.w3.org/2000/svg" viewBox="0 0 124 141.53199999999998" id="javascript-1">
    <path d="M10.383 126.894L0 0l124 .255-10.979 126.639-50.553 14.638z" fill="#e9ca32"></path>
    <path d="M62.468 129.277V12.085l51.064.17-9.106 104.851z" fill="#ffde25"></path>
    <g fill="#fff">
      <path d="M57 26H43.5v78L33 102V91.5l-12.5-2V113l36.5 9.5zM67.127 26H104.5L102 40.95H81.394v24.533H102L99.5 115l-32.373 7.5V107L89 99.5 90.263 79l-23.136 3.35z"></path>
    </g>
  </symbol>
  <symbol xmlns="http://www.w3.org/2000/svg" preserveAspectRatio="xMinYMin meet" viewBox="0 0 256 256" id="bootstrap-4">
    <path d="M0 222.991C0 241.223 14.779 256 33.009 256H222.99C241.223 256 256 241.221 256 222.991V33.01C256 14.777 241.221 0 222.991 0H33.01C14.777 0 0 14.779 0 33.009V222.99z" fill="#563D7C"></path>
    <path d="M106.158 113.238V76.985h31.911c3.04 0 5.97.253 8.792.76 2.822.506 5.319 1.41 7.49 2.713 2.17 1.303 3.907 3.112 5.21 5.427 1.302 2.316 1.954 5.283 1.954 8.9 0 6.513-1.954 11.217-5.862 14.111-3.907 2.895-8.9 4.342-14.979 4.342h-34.516zM72.075 50.5v155h75.112c6.947 0 13.713-.868 20.298-2.605 6.585-1.737 12.446-4.414 17.584-8.032 5.137-3.618 9.226-8.286 12.265-14.002 3.04-5.717 4.559-12.483 4.559-20.298 0-9.697-2.352-17.982-7.055-24.856-4.704-6.875-11.832-11.687-21.384-14.437 6.947-3.328 12.194-7.598 15.74-12.808 3.545-5.21 5.318-11.722 5.318-19.538 0-7.236-1.194-13.314-3.582-18.235-2.388-4.92-5.753-8.864-10.095-11.831-4.341-2.967-9.551-5.102-15.63-6.404-6.078-1.303-12.808-1.954-20.189-1.954H72.075zm34.083 128.515v-42.549h37.121c7.381 0 13.315 1.7 17.802 5.102 4.486 3.401 6.73 9.081 6.73 17.041 0 4.053-.688 7.381-2.063 9.986-1.375 2.605-3.22 4.668-5.536 6.187-2.315 1.52-4.993 2.605-8.032 3.257-3.04.65-6.223.976-9.552.976h-36.47z" fill="#FFF"></path>
  </symbol>
  <symbol xmlns="http://www.w3.org/2000/svg" viewBox="0 0 512 384" id="sass-1">
    <path fill="#CF649A" d="M440.6 220.6c-17.9.101-33.4 4.4-46.4 10.801-4.8-9.5-9.6-17.801-10.399-24-.9-7.2-2-11.601-.9-20.2C384 178.6 389 166.4 389 165.4c-.101-.9-1.101-5.3-11.4-5.4s-19.2 2-20.2 4.7-3 8.9-4.3 15.3c-1.8 9.4-20.6 42.7-31.3 60.2-3.5-6.8-6.5-12.8-7.101-17.601-.899-7.199-2-11.6-.899-20.199 1.1-8.601 6.1-20.8 6.1-21.8-.1-.9-1.1-5.3-11.399-5.4-10.301-.1-19.2 2-20.2 4.7s-2.1 9.1-4.3 15.3C281.9 201.4 256.9 257 250.4 271.5c-3.3 7.4-6.199 13.3-8.3 17.3-2.1 4-.1.3-.3.7-1.8 3.4-2.8 5.3-2.8 5.3v.101c-1.4 2.5-2.9 4.899-3.601 4.899-.5 0-1.5-6.7.2-15.899 3.7-19.301 12.7-49.4 12.601-50.5 0-.5 1.699-5.801-5.801-8.5-7.3-2.7-9.899 1.8-10.5 1.8-.6 0-1.1 1.6-1.1 1.6s8.1-33.899-15.5-33.899c-14.8 0-35.2 16.1-45.3 30.8-6.4 3.5-20 10.899-34.4 18.8-5.5 3-11.2 6.2-16.6 9.1L117.9 251.9c-28.6-30.5-81.5-52.1-79.3-93.1.8-14.9 6-54.2 101.601-101.8 78.3-39 141-28.3 151.899-4.5 15.5 34-33.5 97.2-114.899 106.3-31 3.5-47.301-8.5-51.4-13-4.3-4.7-4.9-4.9-6.5-4-2.6 1.4-1 5.6 0 8.1 2.4 6.3 12.4 17.5 29.4 23.1 14.899 4.9 51.3 7.6 95.3-9.4 49.3-19.1 87.8-72.1 76.5-116.4-11.5-45.1-86.3-59.9-157-34.8C121.4 27.4 75.8 50.8 43 81.5 4 117.9-2.2 149.7.4 162.9c9.101 47.1 74 77.8 100 100.5-1.3.699-2.5 1.399-3.6 2-13 6.399-62.5 32.3-74.9 59.699-14 31 2.2 53.301 13 56.301 33.4 9.3 67.6-7.4 86.1-34.9 18.399-27.5 16.2-63.2 7.7-79.5l-.301-.6 10.2-6c6.601-3.9 13.101-7.5 18.8-10.601-3.199 8.7-5.5 19-6.699 34-1.4 17.601 5.8 40.4 15.3 49.4 4.2 3.899 9.2 4 12.3 4 11 0 16-9.101 21.5-20 6.8-13.3 12.8-28.7 12.8-28.7s-7.5 41.7 13 41.7c7.5 0 15-9.7 18.4-14.7v.1s.2-.3.6-1a36.13 36.13 0 0 0 1.2-1.899v-.2c3-5.2 9.7-17.1 19.7-36.8 12.899-25.4 25.3-57.2 25.3-57.2s1.2 7.8 4.9 20.6c2.199 7.601 6.999 15.9 10.699 24-3 4.2-4.8 6.601-4.8 6.601l.1.1c-2.399 3.2-5.1 6.601-7.899 10-10.2 12.2-22.4 26.101-24 30.101-1.9 4.699-1.5 8.199 2.2 11 2.7 2 7.5 2.399 12.6 2 9.2-.601 15.6-2.9 18.8-4.301 5-1.8 10.7-4.5 16.2-8.5 10-7.399 16.1-17.899 15.5-31.899-.3-7.7-2.8-15.3-5.9-22.5.9-1.3 1.801-2.601 2.7-4 15.8-23.101 28-48.5 28-48.5s1.2 7.8 4.9 20.6c1.899 6.5 5.7 13.601 9.1 20.601-14.8 12.1-24.1 26.1-27.3 35.3-5.9 17-1.3 24.7 7.4 26.5 3.899.8 9.5-1 13.699-2.8 5.2-1.7 11.5-4.601 17.301-8.9 10-7.4 19.6-17.7 19.1-31.6-.3-6.4-2-12.7-4.3-18.7 12.6-5.2 28.899-8.2 49.6-5.7 44.5 5.2 53.3 33 51.601 44.6-1.7 11.601-11 18-14.101 20-3.1 1.9-4.1 2.601-3.8 4 .4 2.101 1.8 2 4.5 1.601 3.7-.601 23.4-9.5 24.2-30.899 1.2-27.504-24.9-57.504-71.2-57.205zM97.4 336.3c-14.7 16.1-35.4 22.2-44.2 17-9.5-5.5-5.801-29.2 12.3-46.3 11-10.4 25.3-20 34.7-25.9 2.1-1.3 5.3-3.199 9.1-5.5.6-.399 1-.6 1-.6.7-.4 1.5-.9 2.3-1.4 6.7 24.4.3 45.8-15.2 62.7zm107.5-73.1c-5.1 12.5-15.9 44.6-22.4 42.8-5.601-1.5-9-25.8-1.101-49.8 4-12.101 12.5-26.5 17.5-32.101 8.101-9 16.9-12 19.101-8.3 2.6 4.801-9.9 39.601-13.1 47.401zm88.7 42.4c-2.2 1.101-4.2 1.9-5.1 1.301-.7-.4.899-1.9.899-1.9s11.1-11.9 15.5-17.4c2.5-3.199 5.5-6.899 8.7-11.1v1.2C313.6 292.1 299.8 301.7 293.6 305.6zm68.399-15.6c-1.6-1.2-1.399-4.9 4-16.5 2.101-4.6 6.9-12.3 15.2-19.6 1 3 1.601 5.899 1.5 8.6-.099 18-12.899 24.7-20.7 27.5z"></path>
  </symbol>
  <symbol xmlns="http://www.w3.org/2000/svg" viewBox="175.7 78 490.6 436.9" id="react-2">
    <g fill="#61dafb">
      <path d="m666.3 296.5c0-32.5-40.7-63.3-103.1-82.4 14.4-63.6 8-114.2-20.2-130.4-6.5-3.8-14.1-5.6-22.4-5.6v22.3c4.6 0 8.3.9 11.4 2.6 13.6 7.8 19.5 37.5 14.9 75.7-1.1 9.4-2.9 19.3-5.1 29.4-19.6-4.8-41-8.5-63.5-10.9-13.5-18.5-27.5-35.3-41.6-50 32.6-30.3 63.2-46.9 84-46.9v-22.3c-27.5 0-63.5 19.6-99.9 53.6-36.4-33.8-72.4-53.2-99.9-53.2v22.3c20.7 0 51.4 16.5 84 46.6-14 14.7-28 31.4-41.3 49.9-22.6 2.4-44 6.1-63.6 11-2.3-10-4-19.7-5.2-29-4.7-38.2 1.1-67.9 14.6-75.8 3-1.8 6.9-2.6 11.5-2.6v-22.3c-8.4 0-16 1.8-22.6 5.6-28.1 16.2-34.4 66.7-19.9 130.1-62.2 19.2-102.7 49.9-102.7 82.3 0 32.5 40.7 63.3 103.1 82.4-14.4 63.6-8 114.2 20.2 130.4 6.5 3.8 14.1 5.6 22.5 5.6 27.5 0 63.5-19.6 99.9-53.6 36.4 33.8 72.4 53.2 99.9 53.2 8.4 0 16-1.8 22.6-5.6 28.1-16.2 34.4-66.7 19.9-130.1 62-19.1 102.5-49.9 102.5-82.3zm-130.2-66.7c-3.7 12.9-8.3 26.2-13.5 39.5-4.1-8-8.4-16-13.1-24-4.6-8-9.5-15.8-14.4-23.4 14.2 2.1 27.9 4.7 41 7.9zm-45.8 106.5c-7.8 13.5-15.8 26.3-24.1 38.2-14.9 1.3-30 2-45.2 2-15.1 0-30.2-.7-45-1.9-8.3-11.9-16.4-24.6-24.2-38-7.6-13.1-14.5-26.4-20.8-39.8 6.2-13.4 13.2-26.8 20.7-39.9 7.8-13.5 15.8-26.3 24.1-38.2 14.9-1.3 30-2 45.2-2 15.1 0 30.2.7 45 1.9 8.3 11.9 16.4 24.6 24.2 38 7.6 13.1 14.5 26.4 20.8 39.8-6.3 13.4-13.2 26.8-20.7 39.9zm32.3-13c5.4 13.4 10 26.8 13.8 39.8-13.1 3.2-26.9 5.9-41.2 8 4.9-7.7 9.8-15.6 14.4-23.7 4.6-8 8.9-16.1 13-24.1zm-101.4 106.7c-9.3-9.6-18.6-20.3-27.8-32 9 .4 18.2.7 27.5.7 9.4 0 18.7-.2 27.8-.7-9 11.7-18.3 22.4-27.5 32zm-74.4-58.9c-14.2-2.1-27.9-4.7-41-7.9 3.7-12.9 8.3-26.2 13.5-39.5 4.1 8 8.4 16 13.1 24s9.5 15.8 14.4 23.4zm73.9-208.1c9.3 9.6 18.6 20.3 27.8 32-9-.4-18.2-.7-27.5-.7-9.4 0-18.7.2-27.8.7 9-11.7 18.3-22.4 27.5-32zm-74 58.9c-4.9 7.7-9.8 15.6-14.4 23.7-4.6 8-8.9 16-13 24-5.4-13.4-10-26.8-13.8-39.8 13.1-3.1 26.9-5.8 41.2-7.9zm-90.5 125.2c-35.4-15.1-58.3-34.9-58.3-50.6s22.9-35.6 58.3-50.6c8.6-3.7 18-7 27.7-10.1 5.7 19.6 13.2 40 22.5 60.9-9.2 20.8-16.6 41.1-22.2 60.6-9.9-3.1-19.3-6.5-28-10.2zm53.8 142.9c-13.6-7.8-19.5-37.5-14.9-75.7 1.1-9.4 2.9-19.3 5.1-29.4 19.6 4.8 41 8.5 63.5 10.9 13.5 18.5 27.5 35.3 41.6 50-32.6 30.3-63.2 46.9-84 46.9-4.5-.1-8.3-1-11.3-2.7zm237.2-76.2c4.7 38.2-1.1 67.9-14.6 75.8-3 1.8-6.9 2.6-11.5 2.6-20.7 0-51.4-16.5-84-46.6 14-14.7 28-31.4 41.3-49.9 22.6-2.4 44-6.1 63.6-11 2.3 10.1 4.1 19.8 5.2 29.1zm38.5-66.7c-8.6 3.7-18 7-27.7 10.1-5.7-19.6-13.2-40-22.5-60.9 9.2-20.8 16.6-41.1 22.2-60.6 9.9 3.1 19.3 6.5 28.1 10.2 35.4 15.1 58.3 34.9 58.3 50.6-.1 15.7-23 35.6-58.4 50.6z"></path>
      <circle cx="420.9" cy="296.5" r="45.7"></circle>
    </g>
  </symbol>
  <symbol xmlns="http://www.w3.org/2000/svg" viewBox=".15 .13 799.7 479.69" id="tailwind-css-2">
    <path d="m400 .13c-106.63 0-173.27 53.3-199.93 159.89 39.99-53.3 86.64-73.28 139.95-59.96 30.42 7.6 52.16 29.67 76.23 54.09 39.2 39.78 84.57 85.82 183.68 85.82 106.62 0 173.27-53.3 199.92-159.9-39.98 53.3-86.63 73.29-139.95 59.97-30.41-7.6-52.15-29.67-76.22-54.09-39.2-39.78-84.58-85.82-183.68-85.82zm-199.93 239.84c-106.62 0-173.27 53.3-199.92 159.9 39.98-53.3 86.63-73.29 139.95-59.96 30.41 7.61 52.15 29.67 76.22 54.08 39.2 39.78 84.58 85.83 183.68 85.83 106.63 0 173.27-53.3 199.93-159.9-39.99 53.3-86.64 73.29-139.95 59.96-30.42-7.59-52.16-29.67-76.23-54.08-39.2-39.78-84.57-85.83-183.68-85.83z" fill="#06b6d4"></path>
  </symbol>
  <symbol fill="none" xmlns="http://www.w3.org/2000/svg" viewBox="0 0 124 141.53" id="css-3">
    <path d="M10.383 126.892L0 0l124 .255-10.979 126.637-50.553 14.638z" fill="#1b73ba"></path>
    <path d="M62.468 129.275V12.085l51.064.17-9.106 104.85z" fill="#1c88c7"></path>
    <path d="M100.851 27.064H22.298l2.128 15.318h37.276l-36.68 15.745 2.127 14.808h54.043l-1.958 20.68-18.298 3.575-16.595-4.255-1.277-11.745H27.83l2.042 24.426 32.681 9.106 31.32-9.957 4-47.745H64.765l36.085-14.978z" fill="#fff"></path>
  </symbol>
  <symbol fill="none" xmlns="http://www.w3.org/2000/svg" viewBox="0 0 124 141.53199999999998" id="html-1">
    <path d="M10.383 126.894L0 0l124 .255-10.979 126.639-50.553 14.638z" fill="#e34f26"></path>
    <path d="M62.468 129.277V12.085l51.064.17-9.106 104.851z" fill="#ef652a"></path>
    <path d="M99.49 41.362l1.446-15.49H22.383l4.34 47.49h54.213L78.81 93.617l-17.362 4.68-17.617-5.106-.936-12.085H27.319l2.128 24.681 32 8.936 32.255-8.936 4.34-48.17H41.107L39.49 41.362z" fill="#fff"></path>
  </symbol>
  <symbol xmlns="http://www.w3.org/2000/svg" viewBox="8.738 -5.03622834 17.45992422 39.40619484" id="mongodb-icon-1">
    <path d="m15.9.087.854 1.604c.192.296.4.558.645.802a22.406 22.406 0 0 1 2.004 2.266c1.447 1.9 2.423 4.01 3.12 6.292.418 1.394.645 2.824.662 4.27.07 4.323-1.412 8.035-4.4 11.12a12.7 12.7 0 0 1 -1.57 1.342c-.296 0-.436-.227-.558-.436a3.589 3.589 0 0 1 -.436-1.255c-.105-.523-.174-1.046-.14-1.586v-.244c-.024-.052-.285-24.052-.181-24.175z" fill="#599636"></path>
    <path d="m15.9.034c-.035-.07-.07-.017-.105.017.017.35-.105.662-.296.96-.21.296-.488.523-.767.767-1.55 1.342-2.77 2.963-3.747 4.776-1.3 2.44-1.97 5.055-2.16 7.808-.087.993.314 4.497.627 5.508.854 2.684 2.388 4.933 4.375 6.885.488.47 1.01.906 1.55 1.325.157 0 .174-.14.21-.244a4.78 4.78 0 0 0 .157-.68l.35-2.614z" fill="#6cac48"></path>
    <path d="m16.754 28.845c.035-.4.227-.732.436-1.063-.21-.087-.366-.26-.488-.453a3.235 3.235 0 0 1 -.26-.575c-.244-.732-.296-1.5-.366-2.248v-.453c-.087.07-.105.662-.105.75a17.37 17.37 0 0 1 -.314 2.353c-.052.314-.087.627-.28.906 0 .035 0 .07.017.122.314.924.4 1.865.453 2.824v.35c0 .418-.017.33.33.47.14.052.296.07.436.174.105 0 .122-.087.122-.157l-.052-.575v-1.604c-.017-.28.035-.558.07-.82z" fill="#c2bfbf"></path>
  </symbol>
  <symbol xmlns="http://www.w3.org/2000/svg" preserveAspectRatio="xMinYMin meet" viewBox="0 0 256 282" id="nodejs-icon">
    <g fill="#8CC84B">
      <path d="M116.504 3.58c6.962-3.985 16.03-4.003 22.986 0 34.995 19.774 70.001 39.517 104.99 59.303 6.581 3.707 10.983 11.031 10.916 18.614v118.968c.049 7.897-4.788 15.396-11.731 19.019-34.88 19.665-69.742 39.354-104.616 59.019-7.106 4.063-16.356 3.75-23.24-.646-10.457-6.062-20.932-12.094-31.39-18.15-2.137-1.274-4.546-2.288-6.055-4.36 1.334-1.798 3.719-2.022 5.657-2.807 4.365-1.388 8.374-3.616 12.384-5.778 1.014-.694 2.252-.428 3.224.193 8.942 5.127 17.805 10.403 26.777 15.481 1.914 1.105 3.852-.362 5.488-1.274 34.228-19.345 68.498-38.617 102.72-57.968 1.268-.61 1.969-1.956 1.866-3.345.024-39.245.006-78.497.012-117.742.145-1.576-.767-3.025-2.192-3.67-34.759-19.575-69.5-39.18-104.253-58.76a3.621 3.621 0 0 0-4.094-.006C91.2 39.257 56.465 58.88 21.712 78.454c-1.42.646-2.373 2.071-2.204 3.653.006 39.245 0 78.497 0 117.748a3.329 3.329 0 0 0 1.89 3.303c9.274 5.259 18.56 10.481 27.84 15.722 5.228 2.814 11.647 4.486 17.407 2.33 5.083-1.823 8.646-7.01 8.549-12.407.048-39.016-.024-78.038.036-117.048-.127-1.732 1.516-3.163 3.2-3 4.456-.03 8.918-.06 13.374.012 1.86-.042 3.14 1.823 2.91 3.568-.018 39.263.048 78.527-.03 117.79.012 10.464-4.287 21.85-13.966 26.97-11.924 6.177-26.662 4.867-38.442-1.056-10.198-5.09-19.93-11.097-29.947-16.55C5.368 215.886.555 208.357.604 200.466V81.497c-.073-7.74 4.504-15.197 11.29-18.85C46.768 42.966 81.636 23.27 116.504 3.58z"></path>
      <path d="M146.928 85.99c15.21-.979 31.493-.58 45.18 6.913 10.597 5.742 16.472 17.793 16.659 29.566-.296 1.588-1.956 2.464-3.472 2.355-4.413-.006-8.827.06-13.24-.03-1.872.072-2.96-1.654-3.195-3.309-1.268-5.633-4.34-11.212-9.642-13.929-8.139-4.075-17.576-3.87-26.451-3.785-6.479.344-13.446.905-18.935 4.715-4.214 2.886-5.494 8.712-3.99 13.404 1.418 3.369 5.307 4.456 8.489 5.458 18.33 4.794 37.754 4.317 55.734 10.626 7.444 2.572 14.726 7.572 17.274 15.366 3.333 10.446 1.872 22.932-5.56 31.318-6.027 6.901-14.805 10.657-23.56 12.697-11.647 2.597-23.734 2.663-35.562 1.51-11.122-1.268-22.696-4.19-31.282-11.768-7.342-6.375-10.928-16.308-10.572-25.895.085-1.619 1.697-2.748 3.248-2.615 4.444-.036 8.888-.048 13.332.006 1.775-.127 3.091 1.407 3.182 3.08.82 5.367 2.837 11 7.517 14.182 9.032 5.827 20.365 5.428 30.707 5.591 8.568-.38 18.186-.495 25.178-6.158 3.689-3.23 4.782-8.634 3.785-13.283-1.08-3.925-5.186-5.754-8.712-6.95-18.095-5.724-37.736-3.647-55.656-10.12-7.275-2.571-14.31-7.432-17.105-14.906-3.9-10.578-2.113-23.662 6.098-31.765 8.006-8.06 19.563-11.164 30.551-12.275z"></path>
    </g>
  </symbol>
  <symbol xmlns="http://www.w3.org/2000/svg" preserveAspectRatio="xMinYMin meet" viewBox="0 0 256 256" id="git-icon">
    <path d="M251.172 116.594L139.4 4.828c-6.433-6.437-16.873-6.437-23.314 0l-23.21 23.21 29.443 29.443c6.842-2.312 14.688-.761 20.142 4.693 5.48 5.489 7.02 13.402 4.652 20.266l28.375 28.376c6.865-2.365 14.786-.835 20.269 4.657 7.663 7.66 7.663 20.075 0 27.74-7.665 7.666-20.08 7.666-27.749 0-5.764-5.77-7.188-14.235-4.27-21.336l-26.462-26.462-.003 69.637a19.82 19.82 0 0 1 5.188 3.71c7.663 7.66 7.663 20.076 0 27.747-7.665 7.662-20.086 7.662-27.74 0-7.663-7.671-7.663-20.086 0-27.746a19.654 19.654 0 0 1 6.421-4.281V94.196a19.378 19.378 0 0 1-6.421-4.281c-5.806-5.798-7.202-14.317-4.227-21.446L81.47 39.442l-76.64 76.635c-6.44 6.443-6.44 16.884 0 23.322l111.774 111.768c6.435 6.438 16.873 6.438 23.316 0l111.251-111.249c6.438-6.44 6.438-16.887 0-23.324" fill="#DE4C36"></path>
  </symbol>
  <symbol xmlns="http://www.w3.org/2000/svg" preserveAspectRatio="xMinYMin meet" viewBox="0 0 256 270" id="angular-icon">
    <path d="M127.606.341L.849 44.95 20.88 211.022l106.86 58.732 107.412-59.528L255.175 44.16 127.606.341z" fill="#B3B3B3"></path>
    <path d="M242.532 53.758L127.31 14.466v241.256l96.561-53.441 18.66-148.523z" fill="#A6120D"></path>
    <path d="M15.073 54.466l17.165 148.525 95.07 52.731V14.462L15.074 54.465z" fill="#DD1B16"></path>
    <path d="M159.027 142.898L127.31 157.73H93.881l-15.714 39.305-29.228.54L127.31 23.227l31.717 119.672zm-3.066-7.467l-28.44-56.303-23.329 55.334h23.117l28.652.97z" fill="#F2F2F2"></path>
    <path d="M127.309 23.226l.21 55.902 26.47 55.377h-26.62l-.06 23.189 36.81.035 17.204 39.852 27.967.518-81.981-174.873z" fill="#B3B3B3"></path>
  </symbol>
  <symbol xmlns="http://www.w3.org/2000/svg" preserveAspectRatio="xMinYMin meet" viewBox="0 0 256 249" id="github-icon-1">
    <g fill="#161614">
      <path d="M127.505 0C57.095 0 0 57.085 0 127.505c0 56.336 36.534 104.13 87.196 120.99 6.372 1.18 8.712-2.766 8.712-6.134 0-3.04-.119-13.085-.173-23.739-35.473 7.713-42.958-15.044-42.958-15.044-5.8-14.738-14.157-18.656-14.157-18.656-11.568-7.914.872-7.752.872-7.752 12.804.9 19.546 13.14 19.546 13.14 11.372 19.493 29.828 13.857 37.104 10.6 1.144-8.242 4.449-13.866 8.095-17.05-28.32-3.225-58.092-14.158-58.092-63.014 0-13.92 4.981-25.295 13.138-34.224-1.324-3.212-5.688-16.18 1.235-33.743 0 0 10.707-3.427 35.073 13.07 10.17-2.826 21.078-4.242 31.914-4.29 10.836.048 21.752 1.464 31.942 4.29 24.337-16.497 35.029-13.07 35.029-13.07 6.94 17.563 2.574 30.531 1.25 33.743 8.175 8.929 13.122 20.303 13.122 34.224 0 48.972-29.828 59.756-58.22 62.912 4.573 3.957 8.648 11.717 8.648 23.612 0 17.06-.148 30.791-.148 34.991 0 3.393 2.295 7.369 8.759 6.117 50.634-16.879 87.122-64.656 87.122-120.973C255.009 57.085 197.922 0 127.505 0"></path>
      <path d="M47.755 181.634c-.28.633-1.278.823-2.185.389-.925-.416-1.445-1.28-1.145-1.916.275-.652 1.273-.834 2.196-.396.927.415 1.455 1.287 1.134 1.923M54.027 187.23c-.608.564-1.797.302-2.604-.589-.834-.889-.99-2.077-.373-2.65.627-.563 1.78-.3 2.616.59.834.899.996 2.08.36 2.65M58.33 194.39c-.782.543-2.06.034-2.849-1.1-.781-1.133-.781-2.493.017-3.038.792-.545 2.05-.055 2.85 1.07.78 1.153.78 2.513-.019 3.069M65.606 202.683c-.699.77-2.187.564-3.277-.488-1.114-1.028-1.425-2.487-.724-3.258.707-.772 2.204-.555 3.302.488 1.107 1.026 1.445 2.496.7 3.258M75.01 205.483c-.307.998-1.741 1.452-3.185 1.028-1.442-.437-2.386-1.607-2.095-2.616.3-1.005 1.74-1.478 3.195-1.024 1.44.435 2.386 1.596 2.086 2.612M85.714 206.67c.036 1.052-1.189 1.924-2.705 1.943-1.525.033-2.758-.818-2.774-1.852 0-1.062 1.197-1.926 2.721-1.951 1.516-.03 2.758.815 2.758 1.86M96.228 206.267c.182 1.026-.872 2.08-2.377 2.36-1.48.27-2.85-.363-3.039-1.38-.184-1.052.89-2.105 2.367-2.378 1.508-.262 2.857.355 3.049 1.398"></path>
    </g>
  </symbol>
  <symbol xmlns="http://www.w3.org/2000/svg" viewBox="0 0 2499.899999999999 2500" id="instagram-2016-5">
    <defs>
      <radialGradient id="a" cx="332.14" cy="2511.81" r="3263.54" gradientUnits="userSpaceOnUse">
        <stop offset=".09" stop-color="#fa8f21"></stop>
        <stop offset=".78" stop-color="#d82d7e"></stop>
      </radialGradient>
      <radialGradient id="b" cx="1516.14" cy="2623.81" r="2572.12" gradientUnits="userSpaceOnUse">
        <stop offset=".64" stop-color="#8c3aaa" stop-opacity="0"></stop>
        <stop offset="1" stop-color="#8c3aaa"></stop>
      </radialGradient>
    </defs>
    <path d="M833.4 1250c0-230.11 186.49-416.7 416.6-416.7s416.7 186.59 416.7 416.7-186.59 416.7-416.7 416.7-416.6-186.59-416.6-416.7m-225.26 0c0 354.5 287.36 641.86 641.86 641.86s641.86-287.36 641.86-641.86S1604.5 608.14 1250 608.14 608.14 895.5 608.14 1250m1159.13-667.31a150 150 0 1 0 150.06-149.94h-.06a150.07 150.07 0 0 0-150 149.94M745 2267.47c-121.87-5.55-188.11-25.85-232.13-43-58.36-22.72-100-49.78-143.78-93.5s-70.88-85.32-93.5-143.68c-17.16-44-37.46-110.26-43-232.13-6.06-131.76-7.27-171.34-7.27-505.15s1.31-373.28 7.27-505.15c5.55-121.87 26-188 43-232.13 22.72-58.36 49.78-100 93.5-143.78s85.32-70.88 143.78-93.5c44-17.16 110.26-37.46 232.13-43 131.76-6.06 171.34-7.27 505-7.27s373.28 1.31 505.15 7.27c121.87 5.55 188 26 232.13 43 58.36 22.62 100 49.78 143.78 93.5s70.78 85.42 93.5 143.78c17.16 44 37.46 110.26 43 232.13 6.06 131.87 7.27 171.34 7.27 505.15s-1.21 373.28-7.27 505.15c-5.55 121.87-25.95 188.11-43 232.13-22.72 58.36-49.78 100-93.5 143.68s-85.42 70.78-143.78 93.5c-44 17.16-110.26 37.46-232.13 43-131.76 6.06-171.34 7.27-505.15 7.27s-373.28-1.21-505-7.27M734.65 7.57c-133.07 6.06-224 27.16-303.41 58.06C349 97.54 279.38 140.35 209.81 209.81S97.54 349 65.63 431.24c-30.9 79.46-52 170.34-58.06 303.41C1.41 867.93 0 910.54 0 1250s1.41 382.07 7.57 515.35c6.06 133.08 27.16 223.95 58.06 303.41 31.91 82.19 74.62 152 144.18 221.43S349 2402.37 431.24 2434.37c79.56 30.9 170.34 52 303.41 58.06C868 2498.49 910.54 2500 1250 2500s382.07-1.41 515.35-7.57c133.08-6.06 223.95-27.16 303.41-58.06 82.19-32 151.86-74.72 221.43-144.18s112.18-139.24 144.18-221.43c30.9-79.46 52.1-170.34 58.06-303.41 6.06-133.38 7.47-175.89 7.47-515.35s-1.41-382.07-7.47-515.35c-6.06-133.08-27.16-224-58.06-303.41-32-82.19-74.72-151.86-144.18-221.43S2150.95 97.54 2068.86 65.63c-79.56-30.9-170.44-52.1-303.41-58.06C1632.17 1.51 1589.56 0 1250.1 0S868 1.41 734.65 7.57" fill="url(#a)"></path>
    <path d="M833.4 1250c0-230.11 186.49-416.7 416.6-416.7s416.7 186.59 416.7 416.7-186.59 416.7-416.7 416.7-416.6-186.59-416.6-416.7m-225.26 0c0 354.5 287.36 641.86 641.86 641.86s641.86-287.36 641.86-641.86S1604.5 608.14 1250 608.14 608.14 895.5 608.14 1250m1159.13-667.31a150 150 0 1 0 150.06-149.94h-.06a150.07 150.07 0 0 0-150 149.94M745 2267.47c-121.87-5.55-188.11-25.85-232.13-43-58.36-22.72-100-49.78-143.78-93.5s-70.88-85.32-93.5-143.68c-17.16-44-37.46-110.26-43-232.13-6.06-131.76-7.27-171.34-7.27-505.15s1.31-373.28 7.27-505.15c5.55-121.87 26-188 43-232.13 22.72-58.36 49.78-100 93.5-143.78s85.32-70.88 143.78-93.5c44-17.16 110.26-37.46 232.13-43 131.76-6.06 171.34-7.27 505-7.27s373.28 1.31 505.15 7.27c121.87 5.55 188 26 232.13 43 58.36 22.62 100 49.78 143.78 93.5s70.78 85.42 93.5 143.78c17.16 44 37.46 110.26 43 232.13 6.06 131.87 7.27 171.34 7.27 505.15s-1.21 373.28-7.27 505.15c-5.55 121.87-25.95 188.11-43 232.13-22.72 58.36-49.78 100-93.5 143.68s-85.42 70.78-143.78 93.5c-44 17.16-110.26 37.46-232.13 43-131.76 6.06-171.34 7.27-505.15 7.27s-373.28-1.21-505-7.27M734.65 7.57c-133.07 6.06-224 27.16-303.41 58.06C349 97.54 279.38 140.35 209.81 209.81S97.54 349 65.63 431.24c-30.9 79.46-52 170.34-58.06 303.41C1.41 867.93 0 910.54 0 1250s1.41 382.07 7.57 515.35c6.06 133.08 27.16 223.95 58.06 303.41 31.91 82.19 74.62 152 144.18 221.43S349 2402.37 431.24 2434.37c79.56 30.9 170.34 52 303.41 58.06C868 2498.49 910.54 2500 1250 2500s382.07-1.41 515.35-7.57c133.08-6.06 223.95-27.16 303.41-58.06 82.19-32 151.86-74.72 221.43-144.18s112.18-139.24 144.18-221.43c30.9-79.46 52.1-170.34 58.06-303.41 6.06-133.38 7.47-175.89 7.47-515.35s-1.41-382.07-7.47-515.35c-6.06-133.08-27.16-224-58.06-303.41-32-82.19-74.72-151.86-144.18-221.43S2150.95 97.54 2068.86 65.63c-79.56-30.9-170.44-52.1-303.41-58.06C1632.17 1.51 1589.56 0 1250.1 0S868 1.41 734.65 7.57" fill="url(#b)"></path>
  </symbol>
  <symbol xmlns="http://www.w3.org/2000/svg" viewBox="0 0 256 256" id="linkedin-icon-2">
    <g fill="none">
      <path d="M0 18.338C0 8.216 8.474 0 18.92 0h218.16C247.53 0 256 8.216 256 18.338v219.327C256 247.79 247.53 256 237.08 256H18.92C8.475 256 0 247.791 0 237.668V18.335z" fill="#069"></path>
      <path d="M77.796 214.238V98.986H39.488v115.252H77.8zM58.65 83.253c13.356 0 21.671-8.85 21.671-19.91-.25-11.312-8.315-19.915-21.417-19.915-13.111 0-21.674 8.603-21.674 19.914 0 11.06 8.312 19.91 21.169 19.91h.248zM99 214.238h38.305v-64.355c0-3.44.25-6.889 1.262-9.346 2.768-6.885 9.071-14.012 19.656-14.012 13.858 0 19.405 10.568 19.405 26.063v61.65h38.304v-66.082c0-35.399-18.896-51.872-44.099-51.872-20.663 0-29.738 11.549-34.78 19.415h.255V98.99H99.002c.5 10.812-.003 115.252-.003 115.252z" fill="#fff"></path>
    </g>
  </symbol>
</svg>