<svg xmlns="http://www.w3.org/2000/svg" width="1000" height="623"><svg viewBox="0 0 396 247" data-background-color="#ffffff" height="623" width="1000" xmlns="http://www.w3.org/2000/svg" xmlns:xlink="http://www.w3.org/1999/xlink" transform="translate(-.606 .252)"><svg viewBox="0 0 395.52 247.2" height="247.2" width="395.52" transform="translate(.24 -.1)"><svg viewBox="0 0 395.52 247.2" height="247.2" width="395.52"><svg viewBox="0 0 247.986 247.2" height="247.2" width="247.986" transform="translate(73.767)"><svg viewBox="0 0 247.986 247.2" height="247.2" width="247.986"><svg viewBox="0 0 247.986 247.2" height="247.2" width="247.986"><svg viewBox="0 0 247.986 247.2" height="247.2" width="247.986"><svg viewBox="0 0 247.986 247.2" height="247.2" width="247.986"><svg viewBox="0 0 247.986 247.2" height="247.2" width="247.986"><svg width="247.986" viewBox="0.7 -29.15 31.55 31.45" height="247.2" data-palette-color="#ed1703"><path d="M32.25-26.4q0 1.1-.9 2.55-.75 1.35-1.67 1.85-.93.5-.93-.1 0-.05.55-.6 1.65-1.55 1.65-2.55 0-2.15-4.25-2.15-1.8 0-4.75.67-2.95.68-5.7 2.18-3.2 1.75-3.2 3.05 0 1.05 1.95 2 1.05.5 4.18 1.68 3.12 1.17 5.05 2.04 1.92.88 3.65 2.48 1.72 1.6 1.72 3.55 0 1.95-2.3 4.25-3.5 3.35-9.1 5.58Q12.6 2.3 8.6 2.3.7 2.3.7-2.15T5.55-9.7q4-2.75 8.4-2.75 1.05 0 .95.35-.1.35-1.5.37-1.4.03-3.6.95-2.2.93-4.1 2.68-2.5 2.25-2.5 4.5 0 1.4 1.35 2.5T9.7 0q3.8 0 7.5-1.2 8-2.65 10-5.8.8-1.15.8-1.95 0-2.3-2.8-3.6-3.25-1.5-9.1-3.45-2.25-.75-3.82-1.98-1.58-1.22-1.58-2.95 0-1.72 1.88-3.4Q14.45-26 17.1-27q5.7-2.15 9.65-2.15 5.5 0 5.5 2.75Z" fill="#0056d2" class="undefined-text-0" data-fill-palette-color="primary"/></svg></svg></svg></svg></svg></svg></svg></svg></svg></svg></svg>